<mxfile host="app.diagrams.net" modified="2023-09-25T22:07:58.866Z" agent="Mozilla/5.0 (Macintosh; Intel Mac OS X 10_15_7) AppleWebKit/605.1.15 (KHTML, like Gecko) Version/16.6 Safari/605.1.15" version="21.8.2" etag="0h1-qhzPCPE1BJ3JP2hh" type="github">
  <diagram name="第 1 页" id="jqgY-Mn8dbf-oD5HaHgv">
    <mxGraphModel>
      <root>
        <mxCell id="0" />
        <mxCell id="1" parent="0" />
      </root>
    </mxGraphModel>
  </diagram>
</mxfile>
